<svg width="20" height="22" viewBox="0 0 20 22" fill="none"
  xmlns="http://www.w3.org/2000/svg">
  <path fill-rule="evenodd" clip-rule="evenodd" d="M13.3072 4.55967C13.3072 3.59358 13.6222 2.69554 14.2521 1.86553C14.8821 1.03551 16.5185 0.620508 19.1616 0.620508V10.6827L18.7096 12.1522C18.4768 12.9006 18.1893 13.5707 17.8469 14.1626C17.5045 14.7545 17.1006 15.2682 16.635 15.7036C16.1693 16.139 15.6455 16.4962 15.0635 16.7751C14.4815 17.0541 13.8413 17.2616 13.1429 17.3977C13.1977 17.0983 13.2387 16.799 13.2661 16.4996C13.2935 16.2003 13.3072 15.9077 13.3072 15.622V4.55967ZM3.98137 1.76348H5.15223V2.90644H3.98137V1.76348ZM5.15224 3.49834H6.3231V4.64131H5.15224V3.49834ZM3.98137 4.94746H5.15223V6.09043H3.98137V4.94746ZM2.81049 6.66191H3.98136V7.82529H2.81049V6.66191ZM0.46875 0.600098H1.63962V1.76348H0.46875V0.600098ZM6.32309 15.622C6.32309 16.6153 6.50454 17.4793 6.86744 18.2141C7.23035 18.9488 7.6309 19.5611 8.06912 20.051C8.50735 20.5408 8.9079 20.9048 9.2708 21.1429L9.81516 21.5001C8.34985 21.5001 7.03863 21.2926 5.88145 20.8776C4.72427 20.4626 3.74513 19.8843 2.94401 19.1427C2.14288 18.4012 1.53007 17.5269 1.10554 16.52C0.681011 15.5131 0.46875 14.4246 0.46875 13.2544V3.78408H1.63962V10.1112H2.81049V8.96826H3.98136V11.5195H5.15222V7.2334H6.32309V15.622ZM10.6368 18.01C11.7187 18.0508 12.7115 17.9691 13.6153 17.765C14.5192 17.5609 15.3306 17.2242 16.0495 16.7547C16.7685 16.2853 17.3881 15.6798 17.9085 14.9382C18.4289 14.1967 18.8466 13.3088 19.1616 12.2747V13.2544C19.1616 14.3702 18.9733 15.4077 18.5967 16.3669C18.2201 17.3262 17.6689 18.1698 16.9431 18.8978C16.2173 19.6258 15.334 20.2143 14.2932 20.6633C13.2524 21.1123 12.0679 21.3776 10.7395 21.4593L10.0411 21.0919C9.98633 21.0511 9.53442 20.6939 8.68537 20.0204C7.83631 19.3468 7.25431 18.3297 6.93933 16.969C7.40495 17.2548 7.94244 17.4895 8.55185 17.6732C9.16125 17.8569 9.85623 17.9691 10.6368 18.01ZM2.81049 2.92686H3.96082V4.06982H2.81049V2.92686Z" fill="white"/>
</svg>
